{
    "asset" : {
        "generator" : "Khronos glTF Blender I/O v1.1.46",
        "version" : "2.0"
    },
    "scene" : 0,
    "scenes" : [
        {
            "name" : "Scene",
            "nodes" : [
                0,
                1,
                2,
                3,
                4,
                5,
                6
            ]
        }
    ],
    "nodes" : [
        {
            "name" : "Light",
            "rotation" : [
                0.16907575726509094,
                0.7558803558349609,
                -0.27217137813568115,
                0.570947527885437
            ],
            "scale" : [
                20.819223403930664,
                20.81922721862793,
                20.819225311279297
            ],
            "translation" : [
                40.87617874145508,
                43.2880973815918,
                23.666507720947266
            ]
        },
        {
            "name" : "Camera",
            "rotation" : [
                0.483536034822464,
                0.33687159419059753,
                -0.20870360732078552,
                0.7804827094078064
            ],
            "scale" : [
                1.9715173244476318,
                1.9715173244476318,
                1.9715173244476318
            ],
            "translation" : [
                11.604595184326172,
                140.6807861328125,
                67.6338882446289
            ]
        },
        {
            "mesh" : 0,
            "name" : "Table"
        },
        {
            "mesh" : 1,
            "name" : "Screen"
        },
        {
            "mesh" : 2,
            "name" : "Mouse"
        },
        {
            "mesh" : 3,
            "name" : "Monitor"
        },
        {
            "mesh" : 4,
            "name" : "Keyboard"
        }
    ],
    "materials" : [
        {
            "doubleSided" : true,
            "emissiveFactor" : [
                0,
                0,
                0
            ],
            "name" : "Material.001",
            "pbrMetallicRoughness" : {
                "baseColorTexture" : {
                    "index" : 0,
                    "texCoord" : 0
                },
                "metallicFactor" : 0,
                "roughnessFactor" : 0.5
            }
        },
        {
            "doubleSided" : true,
            "emissiveFactor" : [
                0,
                0,
                0
            ],
            "name" : "Material.002",
            "pbrMetallicRoughness" : {
                "baseColorTexture" : {
                    "index" : 1,
                    "texCoord" : 0
                },
                "metallicFactor" : 0,
                "roughnessFactor" : 0.5
            }
        },
        {
            "doubleSided" : true,
            "emissiveFactor" : [
                0,
                0,
                0
            ],
            "name" : "Material.003",
            "pbrMetallicRoughness" : {
                "baseColorTexture" : {
                    "index" : 2,
                    "texCoord" : 0
                },
                "metallicFactor" : 0,
                "roughnessFactor" : 0
            }
        },
        {
            "doubleSided" : true,
            "emissiveFactor" : [
                0,
                0,
                0
            ],
            "name" : "Material.004",
            "pbrMetallicRoughness" : {
                "baseColorTexture" : {
                    "index" : 3,
                    "texCoord" : 0
                },
                "metallicFactor" : 0,
                "roughnessFactor" : 0.5
            }
        },
        {
            "doubleSided" : true,
            "emissiveFactor" : [
                0,
                0,
                0
            ],
            "name" : "Material.005",
            "pbrMetallicRoughness" : {
                "baseColorTexture" : {
                    "index" : 4,
                    "texCoord" : 0
                },
                "metallicFactor" : 0,
                "roughnessFactor" : 0
            }
        },
        {
            "doubleSided" : true,
            "emissiveFactor" : [
                0,
                0,
                0
            ],
            "name" : "Screen",
            "pbrMetallicRoughness" : {
                "baseColorTexture" : {
                    "index" : 5,
                    "texCoord" : 0
                },
                "metallicFactor" : 0,
                "roughnessFactor" : 0.4000000059604645
            }
        },
        {
            "doubleSided" : true,
            "emissiveFactor" : [
                0,
                0,
                0
            ],
            "name" : "Mouse",
            "pbrMetallicRoughness" : {
                "baseColorTexture" : {
                    "index" : 6,
                    "texCoord" : 0
                },
                "metallicFactor" : 0,
                "roughnessFactor" : 0.5
            }
        },
        {
            "doubleSided" : true,
            "emissiveFactor" : [
                0,
                0,
                0
            ],
            "name" : "Monitor",
            "pbrMetallicRoughness" : {
                "baseColorTexture" : {
                    "index" : 7,
                    "texCoord" : 0
                },
                "metallicFactor" : 0,
                "roughnessFactor" : 0
            }
        },
        {
            "doubleSided" : true,
            "emissiveFactor" : [
                0,
                0,
                0
            ],
            "name" : "Keyboard",
            "pbrMetallicRoughness" : {
                "baseColorTexture" : {
                    "index" : 8,
                    "texCoord" : 0
                },
                "metallicFactor" : 0,
                "roughnessFactor" : 0.5
            }
        }
    ],
    "meshes" : [
        {
            "name" : "TableMesh",
            "primitives" : [
                {
                    "attributes" : {
                        "POSITION" : 0,
                        "NORMAL" : 1,
                        "TEXCOORD_0" : 2
                    },
                    "indices" : 3,
                    "material" : 0
                },
                {
                    "attributes" : {
                        "POSITION" : 4,
                        "NORMAL" : 5,
                        "TEXCOORD_0" : 6
                    },
                    "indices" : 7,
                    "material" : 1
                },
                {
                    "attributes" : {
                        "POSITION" : 8,
                        "NORMAL" : 9,
                        "TEXCOORD_0" : 10
                    },
                    "indices" : 3,
                    "material" : 2
                },
                {
                    "attributes" : {
                        "POSITION" : 11,
                        "NORMAL" : 12,
                        "TEXCOORD_0" : 13
                    },
                    "indices" : 3,
                    "material" : 3
                },
                {
                    "attributes" : {
                        "POSITION" : 14,
                        "NORMAL" : 15,
                        "TEXCOORD_0" : 16
                    },
                    "indices" : 17,
                    "material" : 4
                }
            ]
        },
        {
            "name" : "Screen",
            "primitives" : [
                {
                    "attributes" : {
                        "POSITION" : 18,
                        "NORMAL" : 19,
                        "TEXCOORD_0" : 20
                    },
                    "indices" : 21,
                    "material" : 5
                }
            ]
        },
        {
            "name" : "Mouse",
            "primitives" : [
                {
                    "attributes" : {
                        "POSITION" : 22,
                        "NORMAL" : 23,
                        "TEXCOORD_0" : 24
                    },
                    "indices" : 25,
                    "material" : 6
                }
            ]
        },
        {
            "name" : "Monitor",
            "primitives" : [
                {
                    "attributes" : {
                        "POSITION" : 26,
                        "NORMAL" : 27,
                        "TEXCOORD_0" : 28
                    },
                    "indices" : 29,
                    "material" : 7
                }
            ]
        },
        {
            "name" : "Keyboard",
            "primitives" : [
                {
                    "attributes" : {
                        "POSITION" : 30,
                        "NORMAL" : 31,
                        "TEXCOORD_0" : 32
                    },
                    "indices" : 33,
                    "material" : 8
                }
            ]
        }
    ],
    "textures" : [
        {
            "source" : 0
        },
        {
            "source" : 0
        },
        {
            "source" : 0
        },
        {
            "source" : 0
        },
        {
            "source" : 1
        },
        {
            "source" : 2
        },
        {
            "source" : 3
        },
        {
            "source" : 4
        },
        {
            "source" : 5
        }
    ],
    "images" : [
        {
            "bufferView" : 4,
            "mimeType" : "image/png",
            "name" : "Image_0"
        },
        {
            "bufferView" : 19,
            "mimeType" : "image/png",
            "name" : "Image_1"
        },
        {
            "bufferView" : 24,
            "mimeType" : "image/png",
            "name" : "Screen"
        },
        {
            "bufferView" : 29,
            "mimeType" : "image/png",
            "name" : "Mouse"
        },
        {
            "bufferView" : 34,
            "mimeType" : "image/png",
            "name" : "MonitorTEST"
        },
        {
            "bufferView" : 39,
            "mimeType" : "image/png",
            "name" : "Keyboards"
        }
    ],
    "accessors" : [
        {
            "bufferView" : 0,
            "componentType" : 5126,
            "count" : 36,
            "max" : [
                50.3251838684082,
                16.62619400024414,
                22.565990447998047
            ],
            "min" : [
                45.731990814208984,
                -24.712594985961914,
                17.972793579101562
            ],
            "type" : "VEC3"
        },
        {
            "bufferView" : 1,
            "componentType" : 5126,
            "count" : 36,
            "type" : "VEC3"
        },
        {
            "bufferView" : 2,
            "componentType" : 5126,
            "count" : 36,
            "type" : "VEC2"
        },
        {
            "bufferView" : 3,
            "componentType" : 5123,
            "count" : 36,
            "type" : "SCALAR"
        },
        {
            "bufferView" : 5,
            "componentType" : 5126,
            "count" : 34,
            "max" : [
                50.3251838684082,
                16.626197814941406,
                -18.772794723510742
            ],
            "min" : [
                45.731990814208984,
                -24.71259307861328,
                -23.36599349975586
            ],
            "type" : "VEC3"
        },
        {
            "bufferView" : 6,
            "componentType" : 5126,
            "count" : 34,
            "type" : "VEC3"
        },
        {
            "bufferView" : 7,
            "componentType" : 5126,
            "count" : 34,
            "type" : "VEC2"
        },
        {
            "bufferView" : 8,
            "componentType" : 5123,
            "count" : 36,
            "type" : "SCALAR"
        },
        {
            "bufferView" : 9,
            "componentType" : 5126,
            "count" : 36,
            "max" : [
                -46.13197708129883,
                16.626192092895508,
                22.565990447998047
            ],
            "min" : [
                -50.725189208984375,
                -24.71259880065918,
                17.97279167175293
            ],
            "type" : "VEC3"
        },
        {
            "bufferView" : 10,
            "componentType" : 5126,
            "count" : 36,
            "type" : "VEC3"
        },
        {
            "bufferView" : 11,
            "componentType" : 5126,
            "count" : 36,
            "type" : "VEC2"
        },
        {
            "bufferView" : 12,
            "componentType" : 5126,
            "count" : 36,
            "max" : [
                -46.13197708129883,
                16.626197814941406,
                -18.772794723510742
            ],
            "min" : [
                -50.725189208984375,
                -24.71259307861328,
                -23.365995407104492
            ],
            "type" : "VEC3"
        },
        {
            "bufferView" : 13,
            "componentType" : 5126,
            "count" : 36,
            "type" : "VEC3"
        },
        {
            "bufferView" : 14,
            "componentType" : 5126,
            "count" : 36,
            "type" : "VEC2"
        },
        {
            "bufferView" : 15,
            "componentType" : 5126,
            "count" : 34,
            "max" : [
                54.91837692260742,
                21.219396591186523,
                27.159189224243164
            ],
            "min" : [
                -55.318382263183594,
                16.626190185546875,
                -27.959186553955078
            ],
            "type" : "VEC3"
        },
        {
            "bufferView" : 16,
            "componentType" : 5126,
            "count" : 34,
            "type" : "VEC3"
        },
        {
            "bufferView" : 17,
            "componentType" : 5126,
            "count" : 34,
            "type" : "VEC2"
        },
        {
            "bufferView" : 18,
            "componentType" : 5123,
            "count" : 36,
            "type" : "SCALAR"
        },
        {
            "bufferView" : 20,
            "componentType" : 5126,
            "count" : 4,
            "max" : [
                20.70173454284668,
                44.03190994262695,
                2.823211193084717
            ],
            "min" : [
                -0.4850420355796814,
                31.265155792236328,
                0.1695433259010315
            ],
            "type" : "VEC3"
        },
        {
            "bufferView" : 21,
            "componentType" : 5126,
            "count" : 4,
            "type" : "VEC3"
        },
        {
            "bufferView" : 22,
            "componentType" : 5126,
            "count" : 4,
            "type" : "VEC2"
        },
        {
            "bufferView" : 23,
            "componentType" : 5123,
            "count" : 6,
            "type" : "SCALAR"
        },
        {
            "bufferView" : 25,
            "componentType" : 5126,
            "count" : 44,
            "max" : [
                36.8930549621582,
                24.32798194885254,
                13.046566009521484
            ],
            "min" : [
                31.56900978088379,
                22.838001251220703,
                5.944289684295654
            ],
            "type" : "VEC3"
        },
        {
            "bufferView" : 26,
            "componentType" : 5126,
            "count" : 44,
            "type" : "VEC3"
        },
        {
            "bufferView" : 27,
            "componentType" : 5126,
            "count" : 44,
            "type" : "VEC2"
        },
        {
            "bufferView" : 28,
            "componentType" : 5123,
            "count" : 66,
            "type" : "SCALAR"
        },
        {
            "bufferView" : 30,
            "componentType" : 5126,
            "count" : 67,
            "max" : [
                24.30605697631836,
                46.885948181152344,
                4.993391990661621
            ],
            "min" : [
                -4.832703113555908,
                22.82078742980957,
                -19.548824310302734
            ],
            "type" : "VEC3"
        },
        {
            "bufferView" : 31,
            "componentType" : 5126,
            "count" : 67,
            "type" : "VEC3"
        },
        {
            "bufferView" : 32,
            "componentType" : 5126,
            "count" : 67,
            "type" : "VEC2"
        },
        {
            "bufferView" : 33,
            "componentType" : 5123,
            "count" : 123,
            "type" : "SCALAR"
        },
        {
            "bufferView" : 35,
            "componentType" : 5126,
            "count" : 64,
            "max" : [
                27.009721755981445,
                26.18978500366211,
                23.932626724243164
            ],
            "min" : [
                -6.018223762512207,
                22.865375518798828,
                7.079034328460693
            ],
            "type" : "VEC3"
        },
        {
            "bufferView" : 36,
            "componentType" : 5126,
            "count" : 64,
            "type" : "VEC3"
        },
        {
            "bufferView" : 37,
            "componentType" : 5126,
            "count" : 64,
            "type" : "VEC2"
        },
        {
            "bufferView" : 38,
            "componentType" : 5123,
            "count" : 96,
            "type" : "SCALAR"
        }
    ],
    "bufferViews" : [
        {
            "buffer" : 0,
            "byteLength" : 432,
            "byteOffset" : 0
        },
        {
            "buffer" : 0,
            "byteLength" : 432,
            "byteOffset" : 432
        },
        {
            "buffer" : 0,
            "byteLength" : 288,
            "byteOffset" : 864
        },
        {
            "buffer" : 0,
            "byteLength" : 72,
            "byteOffset" : 1152
        },
        {
            "buffer" : 0,
            "byteLength" : 3473,
            "byteOffset" : 1224
        },
        {
            "buffer" : 0,
            "byteLength" : 408,
            "byteOffset" : 4700
        },
        {
            "buffer" : 0,
            "byteLength" : 408,
            "byteOffset" : 5108
        },
        {
            "buffer" : 0,
            "byteLength" : 272,
            "byteOffset" : 5516
        },
        {
            "buffer" : 0,
            "byteLength" : 72,
            "byteOffset" : 5788
        },
        {
            "buffer" : 0,
            "byteLength" : 432,
            "byteOffset" : 5860
        },
        {
            "buffer" : 0,
            "byteLength" : 432,
            "byteOffset" : 6292
        },
        {
            "buffer" : 0,
            "byteLength" : 288,
            "byteOffset" : 6724
        },
        {
            "buffer" : 0,
            "byteLength" : 432,
            "byteOffset" : 7012
        },
        {
            "buffer" : 0,
            "byteLength" : 432,
            "byteOffset" : 7444
        },
        {
            "buffer" : 0,
            "byteLength" : 288,
            "byteOffset" : 7876
        },
        {
            "buffer" : 0,
            "byteLength" : 408,
            "byteOffset" : 8164
        },
        {
            "buffer" : 0,
            "byteLength" : 408,
            "byteOffset" : 8572
        },
        {
            "buffer" : 0,
            "byteLength" : 272,
            "byteOffset" : 8980
        },
        {
            "buffer" : 0,
            "byteLength" : 72,
            "byteOffset" : 9252
        },
        {
            "buffer" : 0,
            "byteLength" : 4111,
            "byteOffset" : 9324
        },
        {
            "buffer" : 0,
            "byteLength" : 48,
            "byteOffset" : 13436
        },
        {
            "buffer" : 0,
            "byteLength" : 48,
            "byteOffset" : 13484
        },
        {
            "buffer" : 0,
            "byteLength" : 32,
            "byteOffset" : 13532
        },
        {
            "buffer" : 0,
            "byteLength" : 12,
            "byteOffset" : 13564
        },
        {
            "buffer" : 0,
            "byteLength" : 17441,
            "byteOffset" : 13576
        },
        {
            "buffer" : 0,
            "byteLength" : 528,
            "byteOffset" : 31020
        },
        {
            "buffer" : 0,
            "byteLength" : 528,
            "byteOffset" : 31548
        },
        {
            "buffer" : 0,
            "byteLength" : 352,
            "byteOffset" : 32076
        },
        {
            "buffer" : 0,
            "byteLength" : 132,
            "byteOffset" : 32428
        },
        {
            "buffer" : 0,
            "byteLength" : 4563,
            "byteOffset" : 32560
        },
        {
            "buffer" : 0,
            "byteLength" : 804,
            "byteOffset" : 37124
        },
        {
            "buffer" : 0,
            "byteLength" : 804,
            "byteOffset" : 37928
        },
        {
            "buffer" : 0,
            "byteLength" : 536,
            "byteOffset" : 38732
        },
        {
            "buffer" : 0,
            "byteLength" : 246,
            "byteOffset" : 39268
        },
        {
            "buffer" : 0,
            "byteLength" : 6319,
            "byteOffset" : 39516
        },
        {
            "buffer" : 0,
            "byteLength" : 768,
            "byteOffset" : 45836
        },
        {
            "buffer" : 0,
            "byteLength" : 768,
            "byteOffset" : 46604
        },
        {
            "buffer" : 0,
            "byteLength" : 512,
            "byteOffset" : 47372
        },
        {
            "buffer" : 0,
            "byteLength" : 192,
            "byteOffset" : 47884
        },
        {
            "buffer" : 0,
            "byteLength" : 7330,
            "byteOffset" : 48076
        }
    ],
    "buffers" : [
        {
            "byteLength" : 55408,
            "uri" : "data:application/octet-stream;base64,"
        }
    ]
}
