{
    "asset" : {
        "generator" : "Khronos glTF Blender I/O v1.1.46",
        "version" : "2.0"
    },
    "scene" : 0,
    "scenes" : [
        {
            "name" : "Scene",
            "nodes" : [
                0,
                1,
                2
            ]
        }
    ],
    "nodes" : [
        {
            "mesh" : 0,
            "name" : "Tent",
            "scale" : [
                1,
                1,
                2
            ]
        },
        {
            "name" : "Light",
            "rotation" : [
                0.16907575726509094,
                0.7558803558349609,
                -0.27217137813568115,
                0.570947527885437
            ],
            "translation" : [
                4.076245307922363,
                5.903861999511719,
                -1.0054539442062378
            ]
        },
        {
            "name" : "Camera",
            "rotation" : [
                0.483536034822464,
                0.33687159419059753,
                -0.20870360732078552,
                0.7804827094078064
            ],
            "translation" : [
                7.358891487121582,
                4.958309173583984,
                6.925790786743164
            ]
        }
    ],
    "materials" : [
        {
            "name" : "Material",
            "pbrMetallicRoughness" : {}
        },
        {
            "doubleSided" : true,
            "emissiveFactor" : [
                0,
                0,
                0
            ],
            "name" : "Material.001",
            "pbrMetallicRoughness" : {
                "baseColorFactor" : [
                    0.09850626438856125,
                    0.09335505217313766,
                    0.07794281840324402,
                    1
                ],
                "metallicFactor" : 0,
                "roughnessFactor" : 0.5
            }
        }
    ],
    "meshes" : [
        {
            "name" : "TentObj",
            "primitives" : [
                {
                    "attributes" : {
                        "POSITION" : 0,
                        "NORMAL" : 1,
                        "TEXCOORD_0" : 2
                    },
                    "indices" : 3,
                    "material" : 0
                },
                {
                    "attributes" : {
                        "POSITION" : 4,
                        "NORMAL" : 5,
                        "TEXCOORD_0" : 6
                    },
                    "indices" : 7,
                    "material" : 1
                },
                {
                    "attributes" : {
                        "POSITION" : 8,
                        "NORMAL" : 9,
                        "TEXCOORD_0" : 10
                    },
                    "indices" : 11
                }
            ]
        }
    ],
    "accessors" : [
        {
            "bufferView" : 0,
            "componentType" : 5126,
            "count" : 94,
            "max" : [
                1.220794677734375,
                1,
                1.0689984560012817
            ],
            "min" : [
                -1.220794677734375,
                -1,
                -1
            ],
            "type" : "VEC3"
        },
        {
            "bufferView" : 1,
            "componentType" : 5126,
            "count" : 94,
            "type" : "VEC3"
        },
        {
            "bufferView" : 2,
            "componentType" : 5126,
            "count" : 94,
            "type" : "VEC2"
        },
        {
            "bufferView" : 3,
            "componentType" : 5123,
            "count" : 204,
            "type" : "SCALAR"
        },
        {
            "bufferView" : 4,
            "componentType" : 5126,
            "count" : 445,
            "max" : [
                0.27898502349853516,
                1.1097773313522339,
                1.0689984560012817
            ],
            "min" : [
                -0.27898502349853516,
                0.800000011920929,
                -1.0898553133010864
            ],
            "type" : "VEC3"
        },
        {
            "bufferView" : 5,
            "componentType" : 5126,
            "count" : 445,
            "type" : "VEC3"
        },
        {
            "bufferView" : 6,
            "componentType" : 5126,
            "count" : 445,
            "type" : "VEC2"
        },
        {
            "bufferView" : 7,
            "componentType" : 5123,
            "count" : 804,
            "type" : "SCALAR"
        },
        {
            "bufferView" : 8,
            "componentType" : 5126,
            "count" : 52,
            "max" : [
                1.220794677734375,
                1,
                1
            ],
            "min" : [
                -1.220794677734375,
                -1,
                -1
            ],
            "type" : "VEC3"
        },
        {
            "bufferView" : 9,
            "componentType" : 5126,
            "count" : 52,
            "type" : "VEC3"
        },
        {
            "bufferView" : 10,
            "componentType" : 5126,
            "count" : 52,
            "type" : "VEC2"
        },
        {
            "bufferView" : 11,
            "componentType" : 5123,
            "count" : 108,
            "type" : "SCALAR"
        }
    ],
    "bufferViews" : [
        {
            "buffer" : 0,
            "byteLength" : 1128,
            "byteOffset" : 0
        },
        {
            "buffer" : 0,
            "byteLength" : 1128,
            "byteOffset" : 1128
        },
        {
            "buffer" : 0,
            "byteLength" : 752,
            "byteOffset" : 2256
        },
        {
            "buffer" : 0,
            "byteLength" : 408,
            "byteOffset" : 3008
        },
        {
            "buffer" : 0,
            "byteLength" : 5340,
            "byteOffset" : 3416
        },
        {
            "buffer" : 0,
            "byteLength" : 5340,
            "byteOffset" : 8756
        },
        {
            "buffer" : 0,
            "byteLength" : 3560,
            "byteOffset" : 14096
        },
        {
            "buffer" : 0,
            "byteLength" : 1608,
            "byteOffset" : 17656
        },
        {
            "buffer" : 0,
            "byteLength" : 624,
            "byteOffset" : 19264
        },
        {
            "buffer" : 0,
            "byteLength" : 624,
            "byteOffset" : 19888
        },
        {
            "buffer" : 0,
            "byteLength" : 416,
            "byteOffset" : 20512
        },
        {
            "buffer" : 0,
            "byteLength" : 216,
            "byteOffset" : 20928
        }
    ],
    "buffers" : [
        {
            "byteLength" : 21144,
            "uri" : "data:application/octet-stream;base64,"
        }
    ]
}
